<?xml version="1.0" encoding="UTF-8"?>
<!-- Generator: Adobe Illustrator 25.0.0, SVG Export Plug-In . SVG Version: 6.00 Build 0)  -->
<svg enable-background="new 0 0 3840 1691.9" version="1.1" viewBox="0 0 3840 1691.9" xml:space="preserve" xmlns="http://www.w3.org/2000/svg" xmlns:xlink="http://www.w3.org/1999/xlink">
<style type="text/css">
	.st0{fill:#020202;}
	.st1{fill:#FFFFFF;}
	.st2{clip-path:url(#SVGID_26_);}
	.st3{fill:#243787;}
	.st4{fill:#231F20;}
	.st5{fill:#F17100;}
	.st6{fill:#E50069;}
	.st7{fill:#FCEC01;}
	.st8{fill:#00771F;}
	.st9{fill:#89BC27;}
	.st10{clip-path:url(#SVGID_29_);}
	.st11{clip-path:url(#SVGID_32_);}
	.st12{clip-path:url(#SVGID_36_);}
	.st13{clip-path:url(#SVGID_40_);}
	.st14{clip-path:url(#SVGID_44_);}
	.st15{fill:#EA1E04;}
	.st16{clip-path:url(#SVGID_46_);}
	.st17{clip-path:url(#SVGID_48_);}
	.st18{clip-path:url(#SVGID_49_);}
	.st19{clip-path:url(#SVGID_50_);}
	.st20{clip-path:url(#SVGID_51_);}
	.st21{clip-path:url(#SVGID_52_);}
	.st22{clip-path:url(#SVGID_53_);}
	.st23{clip-path:url(#SVGID_54_);}
	.st24{clip-path:url(#SVGID_55_);}
	.st25{clip-path:url(#SVGID_56_);}
	.st26{clip-path:url(#SVGID_57_);}
	.st27{clip-path:url(#SVGID_58_);}
	.st28{clip-path:url(#SVGID_60_);}
	.st29{clip-path:url(#SVGID_62_);}
	.st30{clip-path:url(#SVGID_64_);}
	.st31{clip-path:url(#SVGID_66_);}
	.st32{clip-path:url(#SVGID_68_);}
	.st33{clip-path:url(#SVGID_70_);}
	.st34{clip-path:url(#SVGID_71_);}
	.st35{clip-path:url(#SVGID_72_);}
	.st36{clip-path:url(#SVGID_73_);}
	.st37{clip-path:url(#SVGID_74_);}
	.st38{clip-path:url(#SVGID_75_);}
	.st39{clip-path:url(#SVGID_76_);}
	.st40{clip-path:url(#SVGID_77_);}
	.st41{clip-path:url(#SVGID_78_);}
	.st42{clip-path:url(#SVGID_79_);}
	.st43{clip-path:url(#SVGID_80_);}
	.st44{clip-path:url(#SVGID_81_);}
	.st45{clip-path:url(#SVGID_82_);}
</style>

	
		
			<path d="m728.4 176c-3.7-33.3-40.6-32.4-66.6-32.4-14.1 0-43.8 0.5-55.2 10-10.9 9.1-10.9 32.8-10.9 45.6 0 12.3 0.5 28.7 10 37.8 11.4 10.9 42.9 11.9 57.4 11.9 10 0 19.6 0 29.6-1.4 20.1-2.7 31.9-8.7 35.1-30.1h82.2c-0.9 24.2-2.3 47.4-20.1 65.6-18.7 19.6-47.4 23.7-73.4 25.1-19.6 0.9-38.7 1.4-58.4 1.4-35.1 0-85.3 0.9-115.3-20.1-29.2-20.5-27.8-63.4-27.8-94.8 0-31-0.5-67.9 25.5-89.8 28.4-23.7 87.2-21.8 121.8-21.8s94.8-1.4 123.5 21.9c7.7 6.4 12.8 12.8 16.9 22.3 6.8 16 7.3 31.5 7.7 48.8h-82z"/>
			<path d="m1151.4 234.3c-1.8 21-7.3 39.7-23.7 53.8-27.8 24.2-93.5 21.4-127.6 21.4-35.6 0-98.5 3.2-127.6-21.4-8.2-6.8-13.2-14.1-17.3-23.7-9.1-22.3-7.7-50.6-7.7-74.3 0-11.9 0-24.2 1.4-36 1.8-20.5 9.6-38.7 26.4-51.5 27.4-21 92.5-19.6 124.9-19.6 32.8 0 97.1-1.4 124.9 19.6 7.7 5.9 12.8 11.9 17.3 20.5 11.8 21 10.5 47.9 10.5 71.1-0.1 13.2-0.6 26.9-1.5 40.1zm-89.3-78.8c-11.9-11.4-46.5-11.9-61.5-11.9-14.6 0-29.6 0.5-43.8 3.2-28.3 5.5-28.7 27.4-28.7 52 0 11.9-0.5 27.8 8.2 36.9 12.3 13.2 47.9 13.2 64.3 13.2 15.5 0 31.9 0 47-4.1 25.1-6.8 24.6-29.6 24.6-52-0.1-12.3-0.5-28.2-10.1-37.3z"/>
			<path d="m1586.8 304.1v-100.8c0-46.5-5-59.7-54.7-59.7-55.6 0-59.7 21.9-59.7 71.6v88.9h-80.7v-115.8c0-39.2-16.9-44.7-53.3-44.7-57.4 0-61.1 20.5-61.1 71.6v88.9h-80.7v-215.7h76.1v32.4h3.6c15-33.3 55.2-37.8 87.5-37.8 41 0 77 6.8 98 45.1 16.4-40.1 54.7-45.1 93.5-45.1 31.5 0 66.6 3.7 89.4 27.8 7.7 8.2 13.7 16.9 16.9 27.8 6.4 21 5.9 43.3 5.9 64.7v100.7h-80.7z"/>
			<path d="m2104.2 304.1v-100.8c0-46.5-5-59.7-54.7-59.7-55.6 0-59.7 21.9-59.7 71.6v88.9h-80.8v-115.8c0-39.2-16.9-44.7-53.3-44.7-57.4 0-61.1 20.5-61.1 71.6v88.9h-80.7v-215.7h76.1v32.4h3.6c15-33.3 55.2-37.8 87.5-37.8 41 0 77 6.8 98 45.1 16.6-40.1 54.9-45.1 93.6-45.1 31.5 0 66.6 3.7 89.4 27.8 7.8 8.2 13.7 16.9 16.9 27.8 6.4 21 5.9 43.3 5.9 64.7v100.7h-80.7z"/>
			<path d="m2530.8 234.3c-1.8 21-7.3 39.7-23.7 53.8-27.8 24.2-93.5 21.4-127.6 21.4-35.6 0-98.5 3.2-127.6-21.4-8.2-6.8-13.2-14.1-17.3-23.7-9.1-22.3-7.8-50.6-7.8-74.3 0-11.9 0-24.2 1.4-36 1.8-20.5 9.6-38.7 26.4-51.5 27.4-21 92.5-19.6 124.9-19.6 32.8 0 97.1-1.4 124.9 19.6 7.7 5.9 12.8 11.9 17.3 20.5 11.8 21 10.5 47.9 10.5 71.1 0 13.2-0.5 26.9-1.4 40.1zm-89.3-78.8c-11.9-11.4-46.5-11.9-61.5-11.9-14.6 0-29.6 0.5-43.8 3.2-28.3 5.5-28.7 27.4-28.7 52 0 11.9-0.5 27.8 8.2 36.9 12.3 13.2 47.9 13.2 64.3 13.2 15.5 0 31.9 0 47-4.1 25.1-6.8 24.6-29.6 24.6-52-0.1-12.3-0.6-28.2-10.1-37.3z"/>
			<path d="m2798.9 304.1v-28.3h-4.1c-5.5 9.1-9.6 15-18.7 20.5-20.1 12.3-53.8 13.2-76.6 13.2-33.3 0-78.4 0.5-104.9-22.8-23.7-21-23.2-62.5-23.2-91.6 0-33.7 0.9-74.8 31.9-95.7 27.4-18.2 65.6-16.4 97.1-16.4 23.7 0 49.7-0.5 70.7 11.9 10.5 5.9 14.1 11.9 20.1 22.3h3.2v-117.2h80.7v304.1h-76.2zm-8.3-140.4c-9.6-21.9-44.2-20.1-63.8-20.1-20.1 0-60.6-2.3-70.7 20.5-3.7 9.1-4.1 21-4.1 30.5 0 12.8-0.5 32.4 9.1 42.4 10.9 11.9 46 11.9 60.6 11.9 16.4 0 36.5-0.9 52-5.9 21.9-6.8 21.4-27.8 21.4-47.4 0.1-10.1-0.4-22.4-4.5-31.9z"/>
			<path d="m3222.8 234.3c-1.8 21-7.3 39.7-23.7 53.8-27.8 24.2-93.5 21.4-127.6 21.4-35.6 0-98.5 3.2-127.6-21.4-8.2-6.8-13.2-14.1-17.3-23.7-9.1-22.3-7.7-50.6-7.7-74.3 0-11.9 0-24.2 1.4-36 1.8-20.5 9.6-38.7 26.4-51.5 27.4-21 92.5-19.6 124.9-19.6 32.8 0 97.1-1.4 124.9 19.6 7.7 5.9 12.8 11.9 17.3 20.5 11.8 21 10.5 47.9 10.5 71.1-0.1 13.2-0.6 26.9-1.5 40.1zm-89.4-78.8c-11.9-11.4-46.5-11.9-61.5-11.9-14.6 0-29.6 0.5-43.8 3.2-28.3 5.5-28.7 27.4-28.7 52 0 11.9-0.5 27.8 8.2 36.9 12.3 13.2 47.9 13.2 64.3 13.2 15.5 0 31.9 0 47-4.1 25.1-6.8 24.6-29.6 24.6-52 0-12.3-0.5-28.2-10.1-37.3z"/>
			<path d="m3517.7 184.2h-75.7c0-31.9-10.5-40.6-42.4-40.6-49.7 0-51.1 31.5-51.1 71.1v89.4h-80.7v-215.7h76.1v32.4h3.6c18.7-33.3 48.8-37.8 83.9-37.8 25.1 0 55.2 3.2 72 24.2 15 18.7 14.6 45.6 14.6 68.4 0.2 2.6-0.3 5.8-0.3 8.6z"/>
			<path d="m3839.5 213.8h-210.6c0 12.3-0.5 26.4 10 35.1 10.9 8.7 41.5 9.1 54.7 9.1s50.1 0.5 58.8-9.1c3.6-3.7 4.6-8.7 5.5-13.7h80.2c-1.8 20.5-5.9 36.5-21.4 50.6-27.8 25.1-94.4 23.7-129.5 23.7-31.9 0-85.2 0.5-111.7-20.1-8.2-6.4-13.7-13.7-18.2-22.8-10-21-9.1-47-9.1-69.3 0-13.7 0-27.4 1.4-40.6 2.3-21.9 9.6-41.5 27.8-54.7 28.3-20.5 84.8-19.1 118.1-19.1 30.5 0 63.8-0.9 93.5 7.7 47.9 14.1 51.1 57.9 51.1 101.2-0.1 7.4-0.1 14.7-0.6 22zm-80.6-49.2c0-8.2-0.5-14.6-6.4-21-9.6-10.5-42.4-10.5-55.6-10.5-12.3 0-24.6 0-36.5 1.8-22.8 3.2-31 11.9-31.5 34.6h129.9v-4.9z"/>
		
		<path d="m86.1 220.1c0-53.6 43.6-97.2 97.2-97.2 17.2 0 33.4 4.5 47.4 12.4v-92.3c-15.1-4-31-6.2-47.4-6.2-101.2 0-183.3 82.1-183.3 183.3s82.1 183.3 183.3 183.3c16.4 0 32.3-2.2 47.4-6.2v-92.3c-14 7.9-30.2 12.4-47.4 12.4-53.6 0-97.2-43.6-97.2-97.2z"/>
		<polygon points="230.7 213.5 317.1 213.5 390.5 140.1 230.7 140.1"/>
		<polygon points="230.7 226.8 230.7 300.1 390.5 300.1 317.1 226.8"/>
	
	
		
			
				<polygon class="st0" points="930.9 533 865.3 533 789.8 608.5 865.3 608.5 1009.4 608.5 1009.4 1491.9 1009.4 1683 1084.9 1607.5 1084.9 1481.3 1084.9 533"/>
				<path d="m1009.4 1691.9c-1.1 0-2.3-0.2-3.4-0.7-3.3-1.4-5.5-4.6-5.5-8.2v-1065.6h-210.7c-3.6 0-6.8-2.2-8.2-5.5s-0.6-7.1 1.9-9.6l75.5-75.5c1.7-1.7 3.9-2.6 6.3-2.6h219.6c4.9 0 8.8 4 8.8 8.8v1074.5c0 2.3-0.9 4.6-2.6 6.2l-75.5 75.5c-1.6 1.8-3.9 2.7-6.2 2.7zm-198.2-1092.2h198.3c4.9 0 8.8 4 8.8 8.8v1053.2l57.8-57.8v-1062h-207.1l-57.8 57.8z"/>
			
			
				<polygon class="st0" points="194.6 533 84.4 533 8.8 608.5 93.4 608.5 230 608.5 332.4 1466.1 374.7 1112.2 305.5 533"/>
				<path d="m332.4 1475c-4.5 0-8.2-3.3-8.8-7.8l-101.4-849.8h-213.4c-3.6 0-6.8-2.2-8.2-5.5s-0.6-7.1 1.9-9.6l75.5-75.5c1.6-1.7 3.9-2.6 6.2-2.6h221.2c4.5 0 8.2 3.3 8.8 7.8l69.2 579.2c0.1 0.7 0.1 1.4 0 2.1l-42.3 353.9c-0.4 4.4-4.2 7.8-8.7 7.8zm-302.2-875.3h199.8c4.5 0 8.2 3.3 8.8 7.8l93.6 784.1 33.4-279.4-68.1-570.4h-209.7l-57.8 57.9z"/>
			
			
				<polygon class="st0" points="620.6 533 510.3 533 434.8 608.5 501.3 608.5 656 608.5 536.7 1607.5 536.7 1607.5 527.7 1683 603.2 1607.5 610.2 1549 610.2 1549 731.5 533"/>
				<path d="m527.7 1691.9c-1.3 0-2.6-0.3-3.9-0.9-3.4-1.6-5.4-5.3-4.9-9l127.1-1064.6h-211.2c-3.6 0-6.8-2.2-8.2-5.5s-0.6-7.1 1.9-9.6l75.5-75.5c1.7-1.7 3.9-2.6 6.3-2.6h221.2c2.5 0 4.9 1.1 6.6 3s2.5 4.4 2.2 6.9l-128.3 1074.5c-0.2 2-1.1 3.8-2.5 5.2l-75.5 75.5c-1.8 1.7-4 2.6-6.3 2.6zm-71.5-1092.2h199.8c2.5 0 4.9 1.1 6.6 3s2.5 4.4 2.2 6.9l-125.3 1049.1 55.3-55.3 126.7-1061.6h-207.5l-57.8 57.9z"/>
			
		
		
			<polygon class="st1" points="230 608.5 305.5 533 84.4 533 8.8 608.5"/>
			<path d="m230 617.4h-221.2c-3.6 0-6.8-2.2-8.2-5.5s-0.6-7.1 1.9-9.6l75.5-75.5c1.6-1.7 3.9-2.6 6.2-2.6h221.2c3.6 0 6.8 2.2 8.2 5.5s0.6 7.1-1.9 9.6l-75.5 75.5c-1.6 1.6-3.9 2.6-6.2 2.6zm-199.8-17.7h196.2l57.8-57.8h-196.2l-57.8 57.8z"/>
		
		
			<polygon class="st1" points="510.3 533 731.5 533 656 608.5 434.8 608.5"/>
			<path d="m656 617.4h-221.2c-3.6 0-6.8-2.2-8.2-5.5s-0.6-7.1 1.9-9.6l75.5-75.5c1.7-1.7 3.9-2.6 6.3-2.6h221.2c3.6 0 6.8 2.2 8.2 5.5s0.6 7.1-1.9 9.6l-75.5 75.5c-1.7 1.6-4 2.6-6.3 2.6zm-199.8-17.7h196.2l57.8-57.8h-196.2l-57.8 57.8z"/>
		
		
			<polygon class="st1" points="865.3 533 789.8 608.5 1009.4 608.5 1084.9 533"/>
			<path d="m789.8 617.4c-3.6 0-6.8-2.2-8.2-5.5s-0.6-7.1 1.9-9.6l75.5-75.5c1.7-1.7 3.9-2.6 6.3-2.6h219.6c3.6 0 6.8 2.2 8.2 5.5s0.6 7.1-1.9 9.6l-75.5 75.5c-1.6 1.7-3.9 2.6-6.2 2.6h-219.7zm79.2-75.6-57.8 57.8h194.6l57.8-57.8h-194.6z"/>
		
		
			
				<path class="st0" d="m2932.9 533h-221c-43.8 0-83.5 16.8-113.3 44.2h-0.1l-1.2 1.2c-2.6 2.4-5 4.9-7.4 7.4l-67.7 67.7c3.7-3.5 7.6-6.8 11.7-9.9 4-3.1 8.1-6 12.4-8.7 0.2-0.1 0.4-0.2 0.6-0.4 4.1-2.6 8.3-5 12.6-7.3 0.5-0.3 1.1-0.5 1.7-0.8 4-2 8.1-3.9 12.3-5.6 1.1-0.4 2.2-0.8 3.3-1.2 3.8-1.4 7.5-2.8 11.4-4 1.8-0.5 3.6-0.9 5.4-1.4 3.3-0.9 6.6-1.8 10-2.5 2.8-0.6 5.7-0.9 8.6-1.3 2.5-0.4 4.9-0.8 7.5-1.1 5.5-0.5 11.1-0.8 16.7-0.8h221c5.2 0 10.4 0.3 15.5 0.8 1.5 0.1 3 0.3 4.5 0.5 3.8 0.4 7.5 1 11.2 1.7 1.4 0.3 2.9 0.5 4.3 0.8 9.8 2.1 19.3 5.1 28.4 8.8 1.3 0.5 2.6 1.1 3.9 1.7 3.3 1.5 6.6 3.1 9.9 4.8 1.3 0.7 2.5 1.3 3.8 2 4.3 2.4 8.5 4.9 12.5 7.6 4.5 3 8.8 6.3 12.9 9.7 4.4 3.7 8.6 7.6 12.7 11.6 1.3 1.3 2.5 2.8 3.8 4.2 2.6 2.8 5.2 5.7 7.6 8.7 1.4 1.7 2.7 3.6 4 5.4 2.1 2.8 4.2 5.7 6.1 8.7 1.3 2 2.5 4 3.7 6.1 1.7 3 3.4 6 5 9 1.1 2.2 2.1 4.3 3.1 6.5 1.4 3.1 2.7 6.3 4 9.6 0.9 2.3 1.7 4.5 2.5 6.8 1.1 3.4 2.1 6.9 3 10.4 0.6 2.2 1.2 4.5 1.7 6.8 0.8 3.9 1.5 7.8 2 11.8 0.3 2 0.7 3.9 0.9 6 0.6 6 1 12 1 18.2v0.1 316.7c0 36.7-12 71.6-33.2 100.1l55.1-52.6v-0.1c33.7-31.4 53.6-75.7 53.6-122.9v-316.9c0.1-92.8-75.1-168.1-168-168.1z"/>
				<path d="m2992.4 1202.3h-0.7c-2.5-0.2-4.8-1.5-6.3-3.5-2.3-3.1-2.4-7.5-0.1-10.6 20.6-27.7 31.4-60.5 31.4-94.9v-316.7c0-5.6-0.3-11.3-1-17.4-0.1-1.1-0.3-2.1-0.5-3.2l-0.4-2.4c-0.6-3.8-1.1-7.5-1.9-11.2-0.3-1.5-0.7-3-1.1-4.5l-0.5-1.9c-0.9-3.3-1.8-6.6-2.9-9.8-0.7-2.2-1.5-4.3-2.3-6.4-1.2-3.1-2.4-6.1-3.8-9.1-1-2.1-2-4.2-3-6.2-1.5-2.9-3.1-5.7-4.7-8.5-1.1-1.9-2.3-3.9-3.5-5.7-1.8-2.8-3.8-5.5-5.8-8.2l-1.2-1.7c-0.8-1.2-1.7-2.3-2.6-3.4-2.3-2.8-4.8-5.5-7.2-8.2l-1.6-1.8c-0.6-0.7-1.3-1.4-2-2.1-4-4.1-8-7.8-12-11-4-3.3-8.1-6.3-12.2-9.2-3.8-2.6-7.8-4.9-11.8-7.2l-3.6-1.9c-3.1-1.6-6.2-3.1-9.4-4.5l-3.7-1.6c-8.7-3.6-17.7-6.4-26.9-8.4l-3-0.6c-4.5-0.9-8.1-1.4-11.6-1.8l-4.2-0.5c-4.9-0.5-9.8-0.7-14.7-0.7h-221c-5.2 0-10.5 0.3-15.9 0.8-1.5 0.1-2.9 0.4-4.4 0.6l-5.1 0.8c-1.9 0.3-3.9 0.5-5.8 0.9-2.7 0.5-5.3 1.2-8 1.9l-3.8 1c-1 0.2-1.9 0.5-2.9 0.8-3.7 1.1-7.3 2.4-10.8 3.8l-3.1 1.1c-4 1.6-7.9 3.4-11.7 5.3-0.1 0-1 0.5-1.1 0.5-4.6 2.4-8.6 4.7-12.5 7.1-4.6 2.9-8.5 5.7-12.3 8.6-0.2 0.2-0.5 0.3-0.7 0.5-4 3.2-7.2 6-10.4 8.9-3.5 3.3-9 3.2-12.4-0.3-3.3-3.5-3.3-9 0.1-12.4l67.7-67.7c2.3-2.5 4.9-5.1 7.7-7.6l1-1c0.4-0.4 0.8-0.7 1.2-1 32.6-29.6 74.6-45.8 118.5-45.8h221c97.6 0 177 79.4 177 177v316.6c0 48.5-20.3 95.3-55.6 128.7-0.2 0.3-0.5 0.6-0.7 0.8l-55.1 52.6c-1.6 1.4-3.8 2.3-6.1 2.3zm-356-602.6h221c5.5 0 10.9 0.3 16.3 0.8l4.7 0.5c4 0.5 7.9 1.1 11.8 1.8l4.6 0.9c10.2 2.2 20.3 5.3 29.9 9.3l4.1 1.8c3.5 1.6 7 3.2 10.4 5l4 2.1c4.5 2.5 8.9 5.1 13.1 8 4.6 3.1 9.2 6.5 13.6 10.2s8.9 7.8 13.3 12.3c0.9 0.9 1.8 1.9 2.6 2.9l1.3 1.5c2.8 3 5.5 6 8 9.2 1.1 1.3 2.1 2.7 3.1 4.1l1.1 1.5c2.2 3 4.4 6 6.4 9.1 1.3 2.1 2.6 4.2 3.9 6.4 1.8 3.1 3.6 6.3 5.2 9.5 1.2 2.3 2.3 4.5 3.3 6.9 1.5 3.3 2.9 6.7 4.2 10.1 0.9 2.3 1.8 4.7 2.6 7.1 1.2 3.6 2.2 7.2 3.2 10.9l0.5 1.8c0.5 1.7 0.9 3.5 1.3 5.3 0.9 4.1 1.5 8.2 2.1 12.4l0.3 2c0.2 1.4 0.5 2.8 0.6 4.2 0.7 6.8 1.1 13 1.1 19.1v316.8c0 19.5-3.2 38.6-9.3 56.8l15.5-14.9c0.3-0.3 0.5-0.6 0.8-0.9 32.3-30.1 50.8-72.5 50.8-116.5v-316.6c0-87.8-71.5-159.3-159.3-159.3h-221c-39.8 0-77.9 14.9-107.4 41.9-0.2 0.2-0.4 0.4-0.6 0.5l-0.4 0.4c-2.6 2.5-5 4.8-7.2 7.2l-17.5 17.5c2.3-0.8 4.6-1.6 6.9-2.3 1.3-0.4 2.5-0.7 3.8-1l3.4-0.9c3-0.8 6-1.6 9-2.2 2.3-0.5 4.6-0.8 6.9-1.1l4.6-0.7c1.8-0.3 3.6-0.6 5.4-0.8 6.3-0.3 12.2-0.6 18-0.6zm411 541.2h0.1-0.1z"/>
			
			
				<path class="st1" d="m3198.4 776.7v738.2c0 92.9 75.3 168.1 168.1 168.1h221c92.9 0 168.1-75.3 168.1-168.1v-738.2c0-92.9-75.3-168.1-168.1-168.1h-221c-92.8-0.1-168.1 75.2-168.1 168.1zm219.6 692.7v-647.2c0-21.9 17.8-39.7 39.7-39.7h38.6c21.9 0 39.7 17.8 39.7 39.7v647.2c0 21.9-17.8 39.7-39.7 39.7h-38.6c-21.9 0-39.7-17.8-39.7-39.7z"/>
				<path d="m3587.5 1691.9h-221c-97.6 0-177-79.4-177-177v-738.2c0-97.6 79.4-177 177-177h221c97.6 0 177 79.4 177 177v738.2c0 97.6-79.4 177-177 177zm-221-1074.5c-87.8 0-159.3 71.5-159.3 159.3v738.2c0 87.8 71.5 159.3 159.3 159.3h221c87.8 0 159.3-71.5 159.3-159.3v-738.2c0-87.8-71.5-159.3-159.3-159.3h-221zm129.8 900.5h-38.6c-26.8 0-48.5-21.8-48.5-48.5v-647.2c0-26.8 21.8-48.5 48.5-48.5h38.6c26.8 0 48.5 21.8 48.5 48.5v647.2c0.1 26.7-21.7 48.5-48.5 48.5zm-38.6-726.6c-17 0-30.9 13.8-30.9 30.9v647.2c0 17 13.8 30.9 30.9 30.9h38.6c17 0 30.9-13.8 30.9-30.9v-647.2c0-17-13.8-30.9-30.9-30.9h-38.6z"/>
			
			
				
					
						<path class="st0" d="m3700.1 1639.5 0.1 0.2 2.8-2.8c-0.9 0.9-1.9 1.7-2.9 2.6z"/>
					
					
						<path class="st0" d="m3831.2 701.2c0-92.9-75.3-168.1-168.1-168.1h-221c-44.3 0-84.4 17.2-114.4 45.2l-0.6 0.1-82.4 82.3 0.3 0.1c30.6-32.1 73.7-52.1 121.5-52.1h221c23.2 0 45.3 4.7 65.4 13.2 24.7 10.4 46.3 26.7 63.3 46.9 1.2 1.4 2.3 2.9 3.4 4.4 7.4 9.4 13.8 19.7 19.1 30.6 10.7 22.1 16.9 46.8 16.9 73.1v738.2c0 44.8-17.6 85.4-46.2 115.5l75.9-75.9v-0.1c28.3-30 45.8-70.5 45.8-115v-738.4z"/>
						<path d="m3709.5 1639.2c-2.2 0-4.4-0.8-6.2-2.5-3.5-3.4-3.6-8.9-0.2-12.4 28.2-29.8 43.7-68.6 43.7-109.4v-738.2c0-24-5.4-47.3-16-69.2-5-10.4-11.1-20.2-18.1-29l-1.1-1.4c-0.7-0.9-1.4-1.8-2.1-2.7-16.2-19.3-37-34.7-60-44.4-19.6-8.3-40.5-12.5-62-12.5h-221c-43.8 0-84.7 17.5-115.1 49.4-2.1 2.2-5.1 3.2-8.1 2.6-3.2-0.6-5.9-3-6.9-6.1-0.9-3.1-0.2-6.5 2.1-8.8l82.4-82.3c0.7-0.7 1.4-1.2 2.3-1.6 32.6-29.8 74.8-46.2 118.9-46.2h221c97.6 0 177 79.4 177 177v738.2c0 44.8-16.9 87.6-47.5 120.4-0.2 0.3-0.5 0.6-0.8 0.9l-76 76c-1.8 1.4-4.1 2.2-6.3 2.2zm-343-1039.5h221c23.9 0 47.1 4.7 68.9 13.9 25.6 10.8 48.6 27.9 66.6 49.3 0.9 1.1 1.8 2.2 2.6 3.3l1 1.3c7.7 9.8 14.5 20.7 20.1 32.2 11.8 24.3 17.8 50.2 17.8 76.9v738.2c0 19.9-3.3 39.3-9.7 57.7l23.6-23.6c0.2-0.2 0.4-0.5 0.6-0.7 28-29.6 43.4-68.3 43.4-109v-738c0-87.8-71.5-159.3-159.3-159.3h-221c-40.3 0-78.8 15.2-108.4 42.8-0.6 0.5-1.2 1-1.8 1.3l-23.5 23.5c18.5-6.5 38-9.8 58.1-9.8z"/>
					
				
				
					<path class="st0" d="m3457.7 782.5c-21.9 0-39.7 17.8-39.7 39.7v647.2c0 21.9 17.8 39.7 39.7 39.7h38.6c21.9 0 39.7-17.8 39.7-39.7v-35.8h-2.8c-21.9 0-39.7-17.8-39.7-39.7v-611.4h-35.8z"/>
				
			
			
				<path class="st0" d="m2727.6 782.5c-21.9 0-39.7 17.8-39.7 39.7v161.8l75.5-75.5v-126h-35.8z"/>
				<path d="m2687.9 992.8c-1.1 0-2.3-0.2-3.4-0.7-3.3-1.4-5.5-4.6-5.5-8.2v-161.7c0-26.8 21.8-48.5 48.5-48.5h35.8c4.9 0 8.8 4 8.8 8.8v126c0 2.3-0.9 4.6-2.6 6.2l-75.5 75.5c-1.5 1.7-3.8 2.6-6.1 2.6zm39.7-201.5c-17 0-30.9 13.8-30.9 30.9v140.5l57.8-57.8v-113.6h-26.9z"/>
			
			
				<path class="st0" d="m2763.4 1433.6v-95.2l-55.2 30.8c-12.6 7-20.3 20.3-20.3 34.7v105.3h337.6v173.8l75.5-75.5v-173.9h-337.6z"/>
				<path d="m3025.5 1691.9c-1.1 0-2.3-0.2-3.4-0.7-3.3-1.4-5.5-4.6-5.5-8.2v-165.1h-328.8c-4.9 0-8.8-4-8.8-8.8v-105.3c0-17.6 9.5-33.8 24.9-42.4l55.2-30.8c2.7-1.5 6.1-1.5 8.8 0.1s4.4 4.5 4.4 7.6v86.4h328.8c4.9 0 8.8 4 8.8 8.8v174c0 2.3-0.9 4.6-2.6 6.2l-75.5 75.5c-1.7 1.8-4 2.7-6.3 2.7zm-328.8-191.7h328.8c4.9 0 8.8 4 8.8 8.8v152.6l57.8-57.8v-161.5h-328.8c-4.9 0-8.8-4-8.8-8.8v-80.2l-42 23.5c-9.8 5.4-15.8 15.8-15.8 26.9v96.5z"/>
			
			
				<path class="st0" d="m2513.3 662.4-2.6 2.6 0.1 0.1c0.9-0.9 1.7-1.8 2.5-2.7z"/>
			
			
				<path class="st1" d="m3663 533h-221c-44.3 0-84.4 17.2-114.4 45.2l-0.6 0.1-82.4 82.3 0.3 0.1c30.6-32.1 73.7-52.1 121.5-52.1h221c23.2 0 45.3 4.7 65.4 13.2 18.3 7.7 34.9 18.7 49.2 32l75.5-75.5c-29.9-28-70.1-45.3-114.5-45.3z"/>
				<path d="m3245 669.5c-0.6 0-1.2-0.1-1.7-0.2-3.2-0.6-5.9-3-6.9-6.1-0.9-3.1-0.2-6.5 2.1-8.8l82.3-82.3c0.7-0.7 1.4-1.2 2.3-1.6 32.6-29.8 74.8-46.2 118.9-46.2h221c44.8 0 87.6 16.9 120.6 47.7 1.7 1.6 2.8 3.9 2.8 6.3s-0.9 4.7-2.6 6.4l-75.5 75.5c-3.3 3.4-8.8 3.5-12.3 0.2-13.8-12.9-29.5-23.1-46.6-30.4-19.6-8.3-40.5-12.5-62-12.5h-221c-43.8 0-84.7 17.5-115.1 49.4-1.6 1.6-3.9 2.6-6.3 2.6zm121.5-69.8h221c23.9 0 47.1 4.7 68.9 13.9 16.4 7 31.7 16.4 45.4 28l62.9-62.9c-28.6-23.9-64.4-36.9-101.7-36.9h-221c-40.3 0-78.8 15.2-108.4 42.8-0.6 0.5-1.2 1-1.8 1.3l-23.5 23.5c18.6-6.4 38.1-9.7 58.2-9.7z"/>
			
			
				<polygon class="st1" points="2687.9 1509.1 2763.4 1433.6 3101 1433.6 3025.5 1509.1"/>
				<path d="m3025.5 1517.9h-337.6c-3.6 0-6.8-2.2-8.2-5.5s-0.6-7.1 1.9-9.6l75.5-75.5c1.7-1.7 3.9-2.6 6.3-2.6h337.6c3.6 0 6.8 2.2 8.2 5.5s0.6 7.1-1.9 9.6l-75.5 75.5c-1.7 1.7-3.9 2.6-6.3 2.6zm-316.3-17.7h312.6l57.8-57.8h-312.7l-57.7 57.8z"/>
			
			
				<path class="st1" d="m2989.1 672.2 75.5-75.5c-30.8-38.8-78.3-63.7-131.6-63.7h-221c-43.8 0-83.5 16.8-113.3 44.2h-0.1l-1.2 1.2c-2.6 2.4-5 4.9-7.4 7.4l-67.7 67.7c30-27.9 70.1-45 114.3-45h221c34.8 0 67.2 10.6 94 28.7 4.5 3 8.8 6.3 12.9 9.7 9 7.5 17.3 16 24.6 25.3z"/>
				<path d="m2989.1 681.1h-0.5c-2.5-0.1-4.9-1.4-6.4-3.3-7-8.9-14.9-16.9-23.5-24-4-3.3-8.1-6.3-12.3-9.2-26.3-17.8-57.1-27.2-89.1-27.2h-221c-40.2 0-78.6 15.2-108.3 42.7-3.5 3.3-9 3.1-12.4-0.3-3.3-3.5-3.3-9 0.1-12.4l67.7-67.7c2.3-2.5 4.9-5.1 7.7-7.6l1-1c0.4-0.4 0.8-0.7 1.2-1 32.6-29.6 74.6-45.8 118.5-45.8h221c54.2 0 104.7 24.5 138.6 67.1 2.8 3.5 2.5 8.6-0.7 11.7l-75.5 75.5c-1.5 1.5-3.8 2.5-6.1 2.5zm-352.7-81.4h221c35.5 0 69.7 10.5 98.9 30.2 4.6 3.1 9.2 6.6 13.6 10.2 7 5.8 13.6 12.2 19.7 19.1l62.9-62.9c-30.3-34.7-73.5-54.4-119.7-54.4h-221c-39.8 0-77.9 14.9-107.4 41.9-0.2 0.2-0.4 0.4-0.6 0.5l-0.4 0.4c-2.6 2.5-5 4.8-7.2 7.2l-17.4 17.4c18.4-6.3 37.8-9.6 57.6-9.6z"/>
			
			
				<path class="st1" d="m2468.3 776.7v207.3h219.6v-161.8c0-21.9 17.8-39.7 39.7-39.7h38.6c21.9 0 39.7 17.8 39.7 39.7v260.1c0 14.4-7.8 27.6-20.3 34.7l-231.2 129c-53.2 29.7-86.2 85.9-86.2 146.8v290.2h557.2v-174h-337.6v-105.3c0-14.4 7.8-27.6 20.3-34.7l231.1-129.1c53.2-29.7 86.2-85.9 86.2-146.8v-316.4c0-92.9-75.3-168.1-168.1-168.1h-221c-92.7-0.1-168 75.2-168 168.1z"/>
				<path d="m3025.5 1691.9h-557.2c-4.9 0-8.8-4-8.8-8.8v-290.3c0-64.1 34.7-123.3 90.7-154.5l231.1-129.1c9.8-5.5 15.8-15.8 15.8-26.9v-260.1c0-17-13.8-30.9-30.9-30.9h-38.6c-17 0-30.9 13.8-30.9 30.9v161.8c0 4.9-4 8.8-8.8 8.8h-219.6c-4.9 0-8.8-4-8.8-8.8v-207.4c0-97.6 79.4-177 177-177h221c97.6 0 177 79.4 177 177v316.6c0 64.1-34.7 123.3-90.7 154.5l-231.1 129.1c-9.8 5.4-15.8 15.8-15.8 26.9v96.4h328.8c4.9 0 8.8 4 8.8 8.8v174c-0.1 5-4.1 9-9 9zm-548.4-17.7h539.6v-156.3h-328.8c-4.9 0-8.8-4-8.8-8.8v-105.3c0-17.6 9.5-33.8 24.9-42.4l231.1-129.1c50.3-28.1 81.6-81.4 81.6-139.1v-316.6c0-87.8-71.4-159.3-159.3-159.3h-221c-87.8 0-159.3 71.5-159.3 159.3v198.5h201.9v-153c0-26.8 21.8-48.5 48.5-48.5h38.6c26.8 0 48.5 21.8 48.5 48.5v260.1c0 17.6-9.5 33.8-24.9 42.4l-231.1 129.1c-50.4 28.1-81.6 81.4-81.6 139.1v281.4z"/>
			
			
				<path class="st0" d="m2657.5 1188.4 128.1-71.5c1.6-0.9 3.1-1.8 4.5-2.9 9.9-7.4 15.9-19.2 15.9-31.7v-10l-176 98.3c-11.6 6.5-22.2 14.3-31.8 23l-1.3 1.3c-2.7 2.6-5.4 5.2-8 8l-66.8 66.7h0.1c9.7-9 20.4-16.9 32.2-23.5l103.1-57.7z"/>
				<path d="m2522.2 1278.3c-0.6 0-1.3-0.1-1.9-0.2-3.1-0.7-5.7-3.1-6.6-6.2s-0.1-6.4 2.2-8.7l66.8-66.7c2.5-2.7 5.3-5.4 8.2-8.2l1.1-1.1c0.2-0.2 0.5-0.5 0.8-0.7 10.1-9.2 21.2-17.2 33-23.8l176-98.3c2.7-1.5 6.1-1.5 8.8 0.1s4.4 4.5 4.4 7.6v10c0 15.2-7.2 29.7-19.4 38.8-1.7 1.3-3.6 2.5-5.5 3.6l-128.1 71.5-103 57.5c-10.8 6.1-21.1 13.5-30.5 22.3-1.9 1.7-4.1 2.5-6.3 2.5zm81.8-78.1-0.8 0.8c-2.8 2.6-5.3 5.1-7.8 7.7l-9.6 9.6 67.4-37.6 4.3 7.7-4.3-7.7 128.1-71.5c1.2-0.7 2.4-1.4 3.5-2.3 6.3-4.7 10.5-11.7 11.9-19.4l-162.4 90.7c-10.8 6-20.9 13.3-30.1 21.8-0.1 0-0.2 0.1-0.2 0.2z"/>
			
		
		
			
				<path class="st0" d="m1668.7 1639.5 0.1 0.2 2.8-2.8c-0.9 0.9-1.9 1.7-2.9 2.6z"/>
			
		
		
			<defs>
				<rect id="SVGID_22_" x="789.8" y="608.5" width="219.6" height="1074.5"/>
			</defs>
			<clipPath id="SVGID_26_">
				<use xlink:href="#SVGID_22_"/>
			</clipPath>
			<g class="st2">
				
					<polygon class="st3" points="-521.1 1768.8 702.3 570.8 -199.4 570.8"/>
					<path class="st4" d="m-521.1 1770.3c-0.3 0-0.5-0.1-0.7-0.2-0.6-0.3-0.8-1-0.7-1.7l321.7-1198c0.2-0.6 0.8-1.1 1.4-1.1h901.7c0.6 0 1.1 0.4 1.4 0.9 0.2 0.6 0.1 1.2-0.3 1.6l-1223.4 1198c-0.3 0.3-0.7 0.5-1.1 0.5zm322.9-1198.1-320 1191.7 1217-1191.7h-897z"/>
				
				
					<polygon class="st8" points="2694.4 570.8 1471 1768.8 1854.9 1768.8 2793.1 570.8"/>
				
				
					<polygon class="st9" points="2196.4 570.8 973 1768.8 1471 1768.8 2694.4 570.8"/>
				
			</g>
		
		
			<rect class="st1" x="789.8" y="608.5" width="219.6" height="1074.5"/>
			<path d="m1009.4 1691.9h-219.6c-4.9 0-8.8-4-8.8-8.8v-1074.6c0-4.9 4-8.8 8.8-8.8h219.6c4.9 0 8.8 4 8.8 8.8v1074.5c0 4.9-3.9 8.9-8.8 8.9zm-210.7-17.7h201.9v-1056.8h-201.9v1056.8z"/>
		
		
			<defs>
				<polygon id="SVGID_20_" points="434.8 608.5 332.4 1466.1 230 608.5 8.8 608.5 137.2 1683 306.5 1683 358.3 1683 527.7 1683 656 608.5"/>
			</defs>
			<clipPath id="SVGID_29_">
				<use xlink:href="#SVGID_20_"/>
			</clipPath>
			<g class="st10">
				
					<polygon class="st7" points="1698.4 570.8 475 1768.8 973 1768.8 2196.4 570.8"/>
				
				
					<polygon class="st8" points="2694.4 570.8 1471 1768.8 1854.9 1768.8 2793.1 570.8"/>
				
				
					<polygon class="st9" points="2196.4 570.8 973 1768.8 1471 1768.8 2694.4 570.8"/>
				
			</g>
		
		
			<polygon class="st1" points="434.8 608.5 332.4 1466.1 230 608.5 8.8 608.5 137.2 1683 306.5 1683 358.3 1683 527.7 1683 656 608.5"/>
			<path d="m527.7 1691.9h-390.5c-4.5 0-8.2-3.3-8.8-7.8l-128.3-1074.5c-0.3-2.5 0.5-5 2.2-6.9s4.1-3 6.6-3h221.1c4.5 0 8.2 3.3 8.8 7.8l93.6 784.1 93.6-784.1c0.5-4.4 4.3-7.8 8.8-7.8h221.2c2.5 0 4.9 1.1 6.6 3s2.5 4.4 2.2 6.9l-128.3 1074.5c-0.6 4.4-4.3 7.8-8.8 7.8zm-382.7-17.7h374.8l126.2-1056.8h-203.3l-101.5 849.8c-0.5 4.4-4.3 7.8-8.8 7.8s-8.2-3.3-8.8-7.8l-101.4-849.8h-203.4l126.2 1056.8z"/>
		
		
			<defs>
				<path id="SVGID_18_" d="m1839.3 1368.4c-41.5 23.3-89.2 36.6-140.1 36.6-158.4 0-287.3-128.9-287.3-287.3s128.9-287.3 287.3-287.3c50.9 0 98.6 13.3 140.1 36.6v-272.7c-44.7-11.9-91.6-18.4-140.1-18.4-299.2 0-541.8 242.6-541.8 541.8s242.6 541.8 541.8 541.8c48.5 0 95.4-6.5 140.1-18.4v-272.7z"/>
			</defs>
			<clipPath id="SVGID_32_">
				<use xlink:href="#SVGID_18_"/>
			</clipPath>
			<g class="st11">
				
					<polygon class="st3" points="-521.1 1768.8 702.3 570.8 -199.4 570.8"/>
					<path class="st4" d="m-521.1 1770.3c-0.3 0-0.5-0.1-0.7-0.2-0.6-0.3-0.8-1-0.7-1.7l321.7-1198c0.2-0.6 0.8-1.1 1.4-1.1h901.7c0.6 0 1.1 0.4 1.4 0.9 0.2 0.6 0.1 1.2-0.3 1.6l-1223.4 1198c-0.3 0.3-0.7 0.5-1.1 0.5zm322.9-1198.1-320 1191.7 1217-1191.7h-897z"/>
				
				
					<polygon class="st6" points="702.3 570.8 -521.1 1768.8 -23.1 1768.8 1200.3 570.8"/>
				
			</g>
		
		
			<path class="st1" d="m1839.3 1368.4c-41.5 23.3-89.2 36.6-140.1 36.6-158.4 0-287.3-128.9-287.3-287.3s128.9-287.3 287.3-287.3c50.9 0 98.6 13.3 140.1 36.6v-272.7c-44.7-11.9-91.6-18.4-140.1-18.4-299.2 0-541.8 242.6-541.8 541.8s242.6 541.8 541.8 541.8c48.5 0 95.4-6.5 140.1-18.4v-272.7z"/>
			<path d="m1699.2 1668.4c-303.6 0-550.7-247-550.7-550.7s247-550.7 550.7-550.7c48 0 95.9 6.3 142.4 18.7 3.9 1 6.6 4.5 6.6 8.5v272.8c0 3.1-1.7 6-4.4 7.6s-6.1 1.6-8.8 0.1c-41.4-23.2-88.3-35.5-135.8-35.5-153.5 0-278.4 124.9-278.4 278.4s124.9 278.4 278.4 278.4c47.5 0 94.4-12.3 135.8-35.5 2.7-1.5 6.1-1.5 8.8 0.1s4.4 4.5 4.4 7.6v272.8c0 4-2.7 7.5-6.6 8.5-46.5 12.7-94.4 18.9-142.4 18.9zm0-1083.6c-293.9 0-533 239.1-533 533s239.1 533 533 533c44.2 0 88.3-5.5 131.3-16.4v-251.3c-40.7 20.2-85.8 30.8-131.3 30.8-163.3 0-296.1-132.8-296.1-296.1s132.8-296.1 296.1-296.1c45.5 0 90.6 10.6 131.3 30.8v-251.3c-42.9-10.9-87.1-16.4-131.3-16.4z"/>
		
		
			
				<path class="st0" d="m1484.1 1045.6c0-60.8 19-117.2 51.4-163.7-74.6 51.9-123.5 138.3-123.5 235.8 0 158.4 128.9 287.3 287.3 287.3 50.9 0 98.6-13.3 140.1-36.6v272.8l72.1-72.1v-272.8c-41.5 23.3-89.2 36.6-140.1 36.6-158.5 0-287.3-128.9-287.3-287.3z"/>
				<path d="m1839.3 1650.1c-1.1 0-2.3-0.2-3.4-0.7-3.3-1.4-5.5-4.6-5.5-8.2v-258.1c-40.7 20.2-85.8 30.8-131.3 30.8-163.3 0-296.1-132.8-296.1-296.1 0-96.7 47.6-187.6 127.3-243.1 3.5-2.4 8.3-2 11.3 1s3.4 7.8 1 11.3c-32.6 46.8-49.8 101.7-49.8 158.7 0 153.5 124.9 278.4 278.4 278.4 47.5 0 94.4-12.3 135.8-35.5 2.7-1.5 6.1-1.5 8.8 0.1s4.4 4.5 4.4 7.6v272.8c0 2.3-0.9 4.6-2.6 6.2l-72.1 72.1c-1.6 1.7-3.9 2.7-6.2 2.7zm0-290.5c1.5 0 3.1 0.4 4.5 1.2 2.7 1.6 4.4 4.5 4.4 7.6v251.5l54.4-54.5v-254.5c-40.7 20.2-85.7 30.8-131.3 30.8-163.3 0-296.1-132.8-296.1-296.1 0-43.7 9.5-86.2 27.8-125.2-52.2 51.9-82.3 122.8-82.3 197.3 0 153.5 124.9 278.4 278.4 278.4 47.5 0 94.4-12.3 135.8-35.5 1.4-0.6 2.9-1 4.4-1z"/>
			
			
				<path class="st0" d="m1771.3 503.8c-168 0-318.1 76.5-417.5 196.5 93.8-77.7 214.1-124.3 345.4-124.3 48.5 0 95.4 6.5 140.1 18.4v272.8l72.1-72.1v-272.9c-44.7-11.9-91.6-18.4-140.1-18.4z"/>
				<path d="m1839.3 876c-1.1 0-2.3-0.2-3.4-0.7-3.3-1.4-5.5-4.6-5.5-8.2v-266c-42.9-10.9-87-16.4-131.3-16.4-123.8 0-244.5 43.4-339.7 122.3-3.5 2.9-8.6 2.7-11.9-0.6-3.2-3.2-3.5-8.4-0.6-11.9 105.2-126.7 259.9-199.5 424.4-199.5 48 0 95.9 6.3 142.4 18.7 3.9 1 6.6 4.5 6.6 8.5v272.8c0 2.3-0.9 4.6-2.6 6.2l-72.1 72.1c-1.7 1.8-4 2.7-6.3 2.7zm-140.1-308.9c48 0 95.9 6.3 142.4 18.7 3.9 1 6.6 4.5 6.6 8.5v251.5l54.4-54.5v-262.3c-42.9-10.9-87-16.4-131.3-16.4-128 0-249.8 45.5-345.6 127.2 82.8-47.3 177.2-72.7 273.5-72.7z"/>
			
		
		
			<path class="st1" d="m1839.3 594.3 72.1-72.1c-44.7-11.9-91.6-18.4-140.1-18.4-168 0-318.1 76.5-417.5 196.5 93.8-77.7 214.1-124.3 345.4-124.3 48.5-0.1 95.4 6.4 140.1 18.3z"/>
			<path d="m1353.9 709.1c-2.3 0-4.5-0.9-6.3-2.6-3.2-3.2-3.5-8.4-0.6-11.9 105.1-126.8 259.8-199.6 424.3-199.6 48 0 95.9 6.3 142.4 18.7 3 0.8 5.4 3.2 6.3 6.2 0.8 3.1-0.1 6.3-2.3 8.5l-72.1 72.1c-2.2 2.2-5.5 3.1-8.5 2.3-45-12-91.3-18.1-137.8-18.1-123.8 0-244.5 43.4-339.7 122.3-1.8 1.5-3.8 2.1-5.7 2.1zm417.4-196.5c-128 0-249.8 45.5-345.6 127.2 82.8-47.3 177.2-72.7 273.4-72.7 46.3 0 92.5 5.9 137.4 17.4l57.5-57.5c-40.1-9.5-81.3-14.4-122.7-14.4z"/>
		
		
			<path class="st0" d="m1839.3 1368.4 72.1-72.1c-41.5 23.3-89.2 36.6-140.1 36.6-158.4 0-287.3-128.9-287.3-287.3 0-60.8 19-117.2 51.4-163.7-74.6 51.9-123.5 138.3-123.5 235.8 0 158.4 128.9 287.3 287.3 287.3 50.9 0 98.6-13.3 140.1-36.6z"/>
			<path d="m1699.2 1413.9c-163.3 0-296.1-132.8-296.1-296.1 0-96.7 47.6-187.6 127.3-243.1 3.5-2.4 8.3-2 11.3 1s3.4 7.8 1 11.3c-32.6 46.8-49.8 101.7-49.8 158.7 0 153.5 124.9 278.4 278.4 278.4 47.5 0 94.4-12.3 135.8-35.5 3.8-2.2 8.7-1.2 11.4 2.4 2.7 3.5 2.3 8.5-0.8 11.6l-72.1 72.1c-0.6 0.6-1.2 1.1-1.9 1.5-44.1 24.6-94 37.7-144.5 37.7zm-196.1-493.4c-52.2 51.9-82.3 122.8-82.3 197.3 0 153.5 124.9 278.4 278.4 278.4 47.1 0 93.6-12.1 134.7-34.9l36.8-36.8c-31.8 11.4-65.5 17.3-99.4 17.3-163.3 0-296.1-132.8-296.1-296.1 0-43.7 9.6-86.3 27.9-125.2zm336.2 447.9h0.1-0.1z"/>
		
		
			<polygon class="st1" points="2066.6 1137.5 1994.9 1137.5 1839.3 1137.5 1839.3 1354.2 1994.9 1354.2 2066.6 1354.2 2311.5 1354.2 2094.7 1137.5"/>
			<path d="m2311.5 1363.1h-472.2c-4.9 0-8.8-4-8.8-8.8v-216.7c0-4.9 4-8.8 8.8-8.8h255.4c2.3 0 4.6 0.9 6.3 2.6l216.7 216.7c2.5 2.5 3.3 6.3 1.9 9.6-1.3 3.2-4.5 5.4-8.1 5.4zm-463.3-17.7h442l-199.1-199.1h-242.9v199.1z"/>
		
		
			<polygon class="st0" points="2138.8 1065.4 2067 1065.4 1911.4 1065.4 1839.3 1137.5 1911.4 1137.5 1939.8 1137.5 1994.9 1137.5 2066.6 1137.5 2094.7 1137.5 2239.3 1282.1 2311.5 1354.2 2383.6 1282.1 2166.9 1065.4"/>
			<path d="m2311.5 1363.1c-2.3 0-4.6-0.9-6.3-2.6l-214.1-214.1h-251.8c-3.6 0-6.8-2.2-8.2-5.5s-0.6-7.1 1.9-9.6l72.1-72.1c1.7-1.7 3.9-2.6 6.3-2.6h255.4c2.3 0 4.6 0.9 6.3 2.6l216.7 216.7c3.4 3.4 3.4 9 0 12.5l-72.1 72.1c-1.6 1.7-3.9 2.6-6.2 2.6zm-450.8-234.4h234.1c2.3 0 4.6 0.9 6.3 2.6l210.5 210.5 59.6-59.6-207.9-207.9h-248.1l-54.5 54.4z"/>
		
		
			<polygon class="st1" points="2094.7 1137.5 2166.9 1065.4 1911.4 1065.4 1839.3 1137.5"/>
			<path d="m2094.7 1146.4h-255.4c-3.6 0-6.8-2.2-8.2-5.5s-0.6-7.1 1.9-9.6l72.1-72.1c1.7-1.7 3.9-2.6 6.3-2.6h255.4c3.6 0 6.8 2.2 8.2 5.5s0.6 7.1-1.9 9.6l-72.1 72.1c-1.7 1.6-3.9 2.6-6.3 2.6zm-234-17.7h230.4l54.5-54.5h-230.4l-54.5 54.5z"/>
		
		
			<polygon class="st1" points="1994.9 881.3 2066.6 881.3 2311.5 881.3 2383.6 809.2 2138.8 809.2 2067 809.2 1911.4 809.2 1839.3 881.3 1911.4 881.3"/>
			<path d="m2311.5 890.1h-472.2c-3.6 0-6.8-2.2-8.2-5.5s-0.6-7.1 1.9-9.6l72.1-72.1c1.7-1.7 3.9-2.6 6.3-2.6h472.2c3.6 0 6.8 2.2 8.2 5.5s0.6 7.1-1.9 9.6l-72.1 72.1c-1.7 1.7-4 2.6-6.3 2.6zm-450.8-17.6h447.2l54.4-54.5h-447.2l-54.4 54.5z"/>
		
		
			<polygon class="st1" points="2066.6 1098 2094.7 1098 2311.5 881.3 2066.6 881.3 1994.9 881.3 1839.3 881.3 1839.3 1098 1994.9 1098"/>
			<path d="m2094.7 1106.9h-255.4c-4.9 0-8.8-4-8.8-8.8v-216.8c0-4.9 4-8.8 8.8-8.8h472.2c3.6 0 6.8 2.2 8.2 5.5s0.6 7.1-1.9 9.6l-216.8 216.7c-1.7 1.6-3.9 2.6-6.3 2.6zm-246.5-17.7h242.9l199.1-199h-442v199z"/>
		
	

</svg>
